<svg xmlns="http://www.w3.org/2000/svg" viewBox="0 0 64 64" width="64" height="64">
  <defs>
    <linearGradient id="bayinaGrad" x1="0%" y1="0%" x2="100%" y2="100%">
      <stop offset="0%" stop-color="#144B70" />
      <stop offset="100%" stop-color="#0B2F47" />
    </linearGradient>
  </defs>
  <!-- Institutional Navy Rounded Square -->
  <rect width="64" height="64" rx="15" fill="url(#bayinaGrad)" />
  
  <!-- Bold Crisp Institutional 'B' -->
  <path d="M20 14 h12 c5.8 0 10 3.8 10 8.5 0 2.8 -1.5 5.3 -4 6.8 3.5 1.4 5.8 4.3 5.8 8.2 0 5.2 -4.5 9.5 -10.5 9.5 H20 Z M28 27 h4 c2.2 0 4 -1.4 4 -3.5 s-1.8 -3.5 -4 -3.5 h-4 Z M28 41 h4.5 c2.5 0 4.5 -1.6 4.5 -4 s-2 -4 -4.5 -4 H28 Z" fill="#FFFFFF" />
</svg>